<svg xmlns="http://www.w3.org/2000/svg" version="1.1" xmlns:xlink="http://www.w3.org/1999/xlink" xmlns:svgjs="http://svgjs.dev/svgjs" width="1920" height="1080" preserveAspectRatio="none" viewBox="0 0 1920 1080"><g mask="url(&quot;#SvgjsMask1092&quot;)" fill="none"><rect width="1920" height="1080" x="0" y="0" fill="#0e2a47"></rect><path d="M104.2 57.3L169.16 94.8L169.16 169.8L104.2 207.3L39.25 169.8L39.25 94.8zM39.25 169.8L104.2 207.3L104.2 282.3L39.25 319.8L-25.7 282.3L-25.7 207.3zM104.2 282.3L169.16 319.8L169.16 394.8L104.2 432.3L39.25 394.8L39.25 319.8zM39.25 844.8L104.2 882.3L104.2 957.3L39.25 994.8L-25.7 957.3L-25.7 882.3zM104.2 957.3L169.16 994.8L169.16 1069.8L104.2 1107.3L39.25 1069.8L39.25 994.8zM169.16 -55.2L234.11 -17.7L234.11 57.3L169.16 94.8L104.2 57.3L104.2 -17.7zM169.16 394.8L234.11 432.3L234.11 507.3L169.16 544.8L104.2 507.3L104.2 432.3zM364.02 507.3L428.97 544.8L428.97 619.8L364.02 657.3L299.06 619.8L299.06 544.8zM299.06 1069.8L364.02 1107.3L364.02 1182.3L299.06 1219.8L234.11 1182.3L234.11 1107.3zM493.93 57.3L558.88 94.8L558.88 169.8L493.93 207.3L428.97 169.8L428.97 94.8zM493.93 507.3L558.88 544.8L558.88 619.8L493.93 657.3L428.97 619.8L428.97 544.8zM558.88 -55.2L623.83 -17.7L623.83 57.3L558.88 94.8L493.93 57.3L493.93 -17.7zM623.83 732.3L688.79 769.8L688.79 844.8L623.83 882.3L558.88 844.8L558.88 769.8zM558.88 844.8L623.83 882.3L623.83 957.3L558.88 994.8L493.93 957.3L493.93 882.3zM623.83 957.3L688.79 994.8L688.79 1069.8L623.83 1107.3L558.88 1069.8L558.88 994.8zM753.74 282.3L818.7 319.8L818.7 394.8L753.74 432.3L688.79 394.8L688.79 319.8zM688.79 394.8L753.74 432.3L753.74 507.3L688.79 544.8L623.83 507.3L623.83 432.3zM688.79 844.8L753.74 882.3L753.74 957.3L688.79 994.8L623.83 957.3L623.83 882.3zM753.74 957.3L818.7 994.8L818.7 1069.8L753.74 1107.3L688.79 1069.8L688.79 994.8zM883.65 57.3L948.6 94.8L948.6 169.8L883.65 207.3L818.69 169.8L818.69 94.8zM818.69 394.8L883.65 432.3L883.65 507.3L818.69 544.8L753.74 507.3L753.74 432.3zM883.65 507.3L948.6 544.8L948.6 619.8L883.65 657.3L818.69 619.8L818.69 544.8zM883.65 957.3L948.6 994.8L948.6 1069.8L883.65 1107.3L818.69 1069.8L818.69 994.8zM948.6 -55.2L1013.56 -17.7L1013.56 57.3L948.6 94.8L883.65 57.3L883.65 -17.7zM1013.56 57.3L1078.51 94.8L1078.51 169.8L1013.56 207.3L948.6 169.8L948.6 94.8zM948.6 169.8L1013.56 207.3L1013.56 282.3L948.6 319.8L883.65 282.3L883.65 207.3zM1013.56 957.3L1078.51 994.8L1078.51 1069.8L1013.56 1107.3L948.6 1069.8L948.6 994.8zM948.6 1069.8L1013.56 1107.3L1013.56 1182.3L948.6 1219.8L883.65 1182.3L883.65 1107.3zM1078.51 -55.2L1143.46 -17.7L1143.46 57.3L1078.51 94.8L1013.56 57.3L1013.56 -17.7zM1143.46 282.3L1208.42 319.8L1208.42 394.8L1143.46 432.3L1078.51 394.8L1078.51 319.8zM1143.46 732.3L1208.42 769.8L1208.42 844.8L1143.46 882.3L1078.51 844.8L1078.51 769.8zM1078.51 844.8L1143.46 882.3L1143.46 957.3L1078.51 994.8L1013.56 957.3L1013.56 882.3zM1208.42 -55.2L1273.37 -17.7L1273.37 57.3L1208.42 94.8L1143.46 57.3L1143.46 -17.7zM1208.42 169.8L1273.37 207.3L1273.37 282.3L1208.42 319.8L1143.46 282.3L1143.46 207.3zM1208.42 619.8L1273.37 657.3L1273.37 732.3L1208.42 769.8L1143.46 732.3L1143.46 657.3zM1273.37 732.3L1338.32 769.8L1338.32 844.8L1273.37 882.3L1208.42 844.8L1208.42 769.8zM1208.42 1069.8L1273.37 1107.3L1273.37 1182.3L1208.42 1219.8L1143.46 1182.3L1143.46 1107.3zM1338.33 169.8L1403.28 207.3L1403.28 282.3L1338.33 319.8L1273.37 282.3L1273.37 207.3zM1403.28 507.3L1468.23 544.8L1468.23 619.8L1403.28 657.3L1338.33 619.8L1338.33 544.8zM1403.28 732.3L1468.23 769.8L1468.23 844.8L1403.28 882.3L1338.33 844.8L1338.33 769.8zM1338.33 844.8L1403.28 882.3L1403.28 957.3L1338.33 994.8L1273.37 957.3L1273.37 882.3zM1468.23 -55.2L1533.19 -17.7L1533.19 57.3L1468.23 94.8L1403.28 57.3L1403.28 -17.7zM1533.19 282.3L1598.14 319.8L1598.14 394.8L1533.19 432.3L1468.23 394.8L1468.23 319.8zM1468.23 394.8L1533.19 432.3L1533.19 507.3L1468.23 544.8L1403.28 507.3L1403.28 432.3zM1533.19 507.3L1598.14 544.8L1598.14 619.8L1533.19 657.3L1468.23 619.8L1468.23 544.8zM1533.19 957.3L1598.14 994.8L1598.14 1069.8L1533.19 1107.3L1468.23 1069.8L1468.23 994.8zM1468.23 1069.8L1533.19 1107.3L1533.19 1182.3L1468.23 1219.8L1403.28 1182.3L1403.28 1107.3zM1598.14 -55.2L1663.09 -17.7L1663.09 57.3L1598.14 94.8L1533.19 57.3L1533.19 -17.7zM1598.14 169.8L1663.09 207.3L1663.09 282.3L1598.14 319.8L1533.19 282.3L1533.19 207.3zM1663.09 282.3L1728.05 319.8L1728.05 394.8L1663.09 432.3L1598.14 394.8L1598.14 319.8zM1598.14 394.8L1663.09 432.3L1663.09 507.3L1598.14 544.8L1533.19 507.3L1533.19 432.3zM1598.14 844.8L1663.09 882.3L1663.09 957.3L1598.14 994.8L1533.19 957.3L1533.19 882.3zM1598.14 1069.8L1663.09 1107.3L1663.09 1182.3L1598.14 1219.8L1533.19 1182.3L1533.19 1107.3zM1793 282.3L1857.95 319.8L1857.95 394.8L1793 432.3L1728.05 394.8L1728.05 319.8zM1728.05 394.8L1793 432.3L1793 507.3L1728.05 544.8L1663.09 507.3L1663.09 432.3zM1728.05 619.8L1793 657.3L1793 732.3L1728.05 769.8L1663.09 732.3L1663.09 657.3zM1793 957.3L1857.95 994.8L1857.95 1069.8L1793 1107.3L1728.05 1069.8L1728.05 994.8zM1728.05 1069.8L1793 1107.3L1793 1182.3L1728.05 1219.8L1663.09 1182.3L1663.09 1107.3zM1922.91 507.3L1987.86 544.8L1987.86 619.8L1922.91 657.3L1857.95 619.8L1857.95 544.8zM1857.95 619.8L1922.91 657.3L1922.91 732.3L1857.95 769.8L1793 732.3L1793 657.3z" stroke="#03305d" stroke-width="2"></path><path d="M96.7 57.3 a7.5 7.5 0 1 0 15 0 a7.5 7.5 0 1 0 -15 0zM161.66 94.8 a7.5 7.5 0 1 0 15 0 a7.5 7.5 0 1 0 -15 0zM161.66 169.8 a7.5 7.5 0 1 0 15 0 a7.5 7.5 0 1 0 -15 0zM96.7 207.3 a7.5 7.5 0 1 0 15 0 a7.5 7.5 0 1 0 -15 0zM31.75 169.8 a7.5 7.5 0 1 0 15 0 a7.5 7.5 0 1 0 -15 0zM31.75 94.8 a7.5 7.5 0 1 0 15 0 a7.5 7.5 0 1 0 -15 0zM96.7 282.3 a7.5 7.5 0 1 0 15 0 a7.5 7.5 0 1 0 -15 0zM31.75 319.8 a7.5 7.5 0 1 0 15 0 a7.5 7.5 0 1 0 -15 0zM-33.2 282.3 a7.5 7.5 0 1 0 15 0 a7.5 7.5 0 1 0 -15 0zM-33.2 207.3 a7.5 7.5 0 1 0 15 0 a7.5 7.5 0 1 0 -15 0zM161.66 319.8 a7.5 7.5 0 1 0 15 0 a7.5 7.5 0 1 0 -15 0zM161.66 394.8 a7.5 7.5 0 1 0 15 0 a7.5 7.5 0 1 0 -15 0zM96.7 432.3 a7.5 7.5 0 1 0 15 0 a7.5 7.5 0 1 0 -15 0zM31.75 394.8 a7.5 7.5 0 1 0 15 0 a7.5 7.5 0 1 0 -15 0zM31.75 844.8 a7.5 7.5 0 1 0 15 0 a7.5 7.5 0 1 0 -15 0zM96.7 882.3 a7.5 7.5 0 1 0 15 0 a7.5 7.5 0 1 0 -15 0zM96.7 957.3 a7.5 7.5 0 1 0 15 0 a7.5 7.5 0 1 0 -15 0zM31.75 994.8 a7.5 7.5 0 1 0 15 0 a7.5 7.5 0 1 0 -15 0zM-33.2 957.3 a7.5 7.5 0 1 0 15 0 a7.5 7.5 0 1 0 -15 0zM-33.2 882.3 a7.5 7.5 0 1 0 15 0 a7.5 7.5 0 1 0 -15 0zM161.66 994.8 a7.5 7.5 0 1 0 15 0 a7.5 7.5 0 1 0 -15 0zM161.66 1069.8 a7.5 7.5 0 1 0 15 0 a7.5 7.5 0 1 0 -15 0zM96.7 1107.3 a7.5 7.5 0 1 0 15 0 a7.5 7.5 0 1 0 -15 0zM31.75 1069.8 a7.5 7.5 0 1 0 15 0 a7.5 7.5 0 1 0 -15 0zM161.66 -55.2 a7.5 7.5 0 1 0 15 0 a7.5 7.5 0 1 0 -15 0zM226.61 -17.7 a7.5 7.5 0 1 0 15 0 a7.5 7.5 0 1 0 -15 0zM226.61 57.3 a7.5 7.5 0 1 0 15 0 a7.5 7.5 0 1 0 -15 0zM96.7 -17.7 a7.5 7.5 0 1 0 15 0 a7.5 7.5 0 1 0 -15 0zM226.61 432.3 a7.5 7.5 0 1 0 15 0 a7.5 7.5 0 1 0 -15 0zM226.61 507.3 a7.5 7.5 0 1 0 15 0 a7.5 7.5 0 1 0 -15 0zM161.66 544.8 a7.5 7.5 0 1 0 15 0 a7.5 7.5 0 1 0 -15 0zM96.7 507.3 a7.5 7.5 0 1 0 15 0 a7.5 7.5 0 1 0 -15 0zM356.52 507.3 a7.5 7.5 0 1 0 15 0 a7.5 7.5 0 1 0 -15 0zM421.47 544.8 a7.5 7.5 0 1 0 15 0 a7.5 7.5 0 1 0 -15 0zM421.47 619.8 a7.5 7.5 0 1 0 15 0 a7.5 7.5 0 1 0 -15 0zM356.52 657.3 a7.5 7.5 0 1 0 15 0 a7.5 7.5 0 1 0 -15 0zM291.56 619.8 a7.5 7.5 0 1 0 15 0 a7.5 7.5 0 1 0 -15 0zM291.56 544.8 a7.5 7.5 0 1 0 15 0 a7.5 7.5 0 1 0 -15 0zM291.56 1069.8 a7.5 7.5 0 1 0 15 0 a7.5 7.5 0 1 0 -15 0zM356.52 1107.3 a7.5 7.5 0 1 0 15 0 a7.5 7.5 0 1 0 -15 0zM356.52 1182.3 a7.5 7.5 0 1 0 15 0 a7.5 7.5 0 1 0 -15 0zM291.56 1219.8 a7.5 7.5 0 1 0 15 0 a7.5 7.5 0 1 0 -15 0zM226.61 1182.3 a7.5 7.5 0 1 0 15 0 a7.5 7.5 0 1 0 -15 0zM226.61 1107.3 a7.5 7.5 0 1 0 15 0 a7.5 7.5 0 1 0 -15 0zM486.43 57.3 a7.5 7.5 0 1 0 15 0 a7.5 7.5 0 1 0 -15 0zM551.38 94.8 a7.5 7.5 0 1 0 15 0 a7.5 7.5 0 1 0 -15 0zM551.38 169.8 a7.5 7.5 0 1 0 15 0 a7.5 7.5 0 1 0 -15 0zM486.43 207.3 a7.5 7.5 0 1 0 15 0 a7.5 7.5 0 1 0 -15 0zM421.47 169.8 a7.5 7.5 0 1 0 15 0 a7.5 7.5 0 1 0 -15 0zM421.47 94.8 a7.5 7.5 0 1 0 15 0 a7.5 7.5 0 1 0 -15 0zM486.43 507.3 a7.5 7.5 0 1 0 15 0 a7.5 7.5 0 1 0 -15 0zM551.38 544.8 a7.5 7.5 0 1 0 15 0 a7.5 7.5 0 1 0 -15 0zM551.38 619.8 a7.5 7.5 0 1 0 15 0 a7.5 7.5 0 1 0 -15 0zM486.43 657.3 a7.5 7.5 0 1 0 15 0 a7.5 7.5 0 1 0 -15 0zM551.38 -55.2 a7.5 7.5 0 1 0 15 0 a7.5 7.5 0 1 0 -15 0zM616.33 -17.7 a7.5 7.5 0 1 0 15 0 a7.5 7.5 0 1 0 -15 0zM616.33 57.3 a7.5 7.5 0 1 0 15 0 a7.5 7.5 0 1 0 -15 0zM486.43 -17.7 a7.5 7.5 0 1 0 15 0 a7.5 7.5 0 1 0 -15 0zM616.33 732.3 a7.5 7.5 0 1 0 15 0 a7.5 7.5 0 1 0 -15 0zM681.29 769.8 a7.5 7.5 0 1 0 15 0 a7.5 7.5 0 1 0 -15 0zM681.29 844.8 a7.5 7.5 0 1 0 15 0 a7.5 7.5 0 1 0 -15 0zM616.33 882.3 a7.5 7.5 0 1 0 15 0 a7.5 7.5 0 1 0 -15 0zM551.38 844.8 a7.5 7.5 0 1 0 15 0 a7.5 7.5 0 1 0 -15 0zM551.38 769.8 a7.5 7.5 0 1 0 15 0 a7.5 7.5 0 1 0 -15 0zM616.33 957.3 a7.5 7.5 0 1 0 15 0 a7.5 7.5 0 1 0 -15 0zM551.38 994.8 a7.5 7.5 0 1 0 15 0 a7.5 7.5 0 1 0 -15 0zM486.43 957.3 a7.5 7.5 0 1 0 15 0 a7.5 7.5 0 1 0 -15 0zM486.43 882.3 a7.5 7.5 0 1 0 15 0 a7.5 7.5 0 1 0 -15 0zM681.29 994.8 a7.5 7.5 0 1 0 15 0 a7.5 7.5 0 1 0 -15 0zM681.29 1069.8 a7.5 7.5 0 1 0 15 0 a7.5 7.5 0 1 0 -15 0zM616.33 1107.3 a7.5 7.5 0 1 0 15 0 a7.5 7.5 0 1 0 -15 0zM551.38 1069.8 a7.5 7.5 0 1 0 15 0 a7.5 7.5 0 1 0 -15 0zM746.24 282.3 a7.5 7.5 0 1 0 15 0 a7.5 7.5 0 1 0 -15 0zM811.2 319.8 a7.5 7.5 0 1 0 15 0 a7.5 7.5 0 1 0 -15 0zM811.2 394.8 a7.5 7.5 0 1 0 15 0 a7.5 7.5 0 1 0 -15 0zM746.24 432.3 a7.5 7.5 0 1 0 15 0 a7.5 7.5 0 1 0 -15 0zM681.29 394.8 a7.5 7.5 0 1 0 15 0 a7.5 7.5 0 1 0 -15 0zM681.29 319.8 a7.5 7.5 0 1 0 15 0 a7.5 7.5 0 1 0 -15 0zM746.24 507.3 a7.5 7.5 0 1 0 15 0 a7.5 7.5 0 1 0 -15 0zM681.29 544.8 a7.5 7.5 0 1 0 15 0 a7.5 7.5 0 1 0 -15 0zM616.33 507.3 a7.5 7.5 0 1 0 15 0 a7.5 7.5 0 1 0 -15 0zM616.33 432.3 a7.5 7.5 0 1 0 15 0 a7.5 7.5 0 1 0 -15 0zM746.24 882.3 a7.5 7.5 0 1 0 15 0 a7.5 7.5 0 1 0 -15 0zM746.24 957.3 a7.5 7.5 0 1 0 15 0 a7.5 7.5 0 1 0 -15 0zM811.2 994.8 a7.5 7.5 0 1 0 15 0 a7.5 7.5 0 1 0 -15 0zM811.2 1069.8 a7.5 7.5 0 1 0 15 0 a7.5 7.5 0 1 0 -15 0zM746.24 1107.3 a7.5 7.5 0 1 0 15 0 a7.5 7.5 0 1 0 -15 0zM876.15 57.3 a7.5 7.5 0 1 0 15 0 a7.5 7.5 0 1 0 -15 0zM941.1 94.8 a7.5 7.5 0 1 0 15 0 a7.5 7.5 0 1 0 -15 0zM941.1 169.8 a7.5 7.5 0 1 0 15 0 a7.5 7.5 0 1 0 -15 0zM876.15 207.3 a7.5 7.5 0 1 0 15 0 a7.5 7.5 0 1 0 -15 0zM811.19 169.8 a7.5 7.5 0 1 0 15 0 a7.5 7.5 0 1 0 -15 0zM811.19 94.8 a7.5 7.5 0 1 0 15 0 a7.5 7.5 0 1 0 -15 0zM811.19 394.8 a7.5 7.5 0 1 0 15 0 a7.5 7.5 0 1 0 -15 0zM876.15 432.3 a7.5 7.5 0 1 0 15 0 a7.5 7.5 0 1 0 -15 0zM876.15 507.3 a7.5 7.5 0 1 0 15 0 a7.5 7.5 0 1 0 -15 0zM811.19 544.8 a7.5 7.5 0 1 0 15 0 a7.5 7.5 0 1 0 -15 0zM941.1 544.8 a7.5 7.5 0 1 0 15 0 a7.5 7.5 0 1 0 -15 0zM941.1 619.8 a7.5 7.5 0 1 0 15 0 a7.5 7.5 0 1 0 -15 0zM876.15 657.3 a7.5 7.5 0 1 0 15 0 a7.5 7.5 0 1 0 -15 0zM811.19 619.8 a7.5 7.5 0 1 0 15 0 a7.5 7.5 0 1 0 -15 0zM876.15 957.3 a7.5 7.5 0 1 0 15 0 a7.5 7.5 0 1 0 -15 0zM941.1 994.8 a7.5 7.5 0 1 0 15 0 a7.5 7.5 0 1 0 -15 0zM941.1 1069.8 a7.5 7.5 0 1 0 15 0 a7.5 7.5 0 1 0 -15 0zM876.15 1107.3 a7.5 7.5 0 1 0 15 0 a7.5 7.5 0 1 0 -15 0zM811.19 1069.8 a7.5 7.5 0 1 0 15 0 a7.5 7.5 0 1 0 -15 0zM811.19 994.8 a7.5 7.5 0 1 0 15 0 a7.5 7.5 0 1 0 -15 0zM941.1 -55.2 a7.5 7.5 0 1 0 15 0 a7.5 7.5 0 1 0 -15 0zM1006.06 -17.7 a7.5 7.5 0 1 0 15 0 a7.5 7.5 0 1 0 -15 0zM1006.06 57.3 a7.5 7.5 0 1 0 15 0 a7.5 7.5 0 1 0 -15 0zM876.15 -17.7 a7.5 7.5 0 1 0 15 0 a7.5 7.5 0 1 0 -15 0zM1071.01 94.8 a7.5 7.5 0 1 0 15 0 a7.5 7.5 0 1 0 -15 0zM1071.01 169.8 a7.5 7.5 0 1 0 15 0 a7.5 7.5 0 1 0 -15 0zM1006.06 207.3 a7.5 7.5 0 1 0 15 0 a7.5 7.5 0 1 0 -15 0zM1006.06 282.3 a7.5 7.5 0 1 0 15 0 a7.5 7.5 0 1 0 -15 0zM941.1 319.8 a7.5 7.5 0 1 0 15 0 a7.5 7.5 0 1 0 -15 0zM876.15 282.3 a7.5 7.5 0 1 0 15 0 a7.5 7.5 0 1 0 -15 0zM1006.06 957.3 a7.5 7.5 0 1 0 15 0 a7.5 7.5 0 1 0 -15 0zM1071.01 994.8 a7.5 7.5 0 1 0 15 0 a7.5 7.5 0 1 0 -15 0zM1071.01 1069.8 a7.5 7.5 0 1 0 15 0 a7.5 7.5 0 1 0 -15 0zM1006.06 1107.3 a7.5 7.5 0 1 0 15 0 a7.5 7.5 0 1 0 -15 0zM1006.06 1182.3 a7.5 7.5 0 1 0 15 0 a7.5 7.5 0 1 0 -15 0zM941.1 1219.8 a7.5 7.5 0 1 0 15 0 a7.5 7.5 0 1 0 -15 0zM876.15 1182.3 a7.5 7.5 0 1 0 15 0 a7.5 7.5 0 1 0 -15 0zM1071.01 -55.2 a7.5 7.5 0 1 0 15 0 a7.5 7.5 0 1 0 -15 0zM1135.96 -17.7 a7.5 7.5 0 1 0 15 0 a7.5 7.5 0 1 0 -15 0zM1135.96 57.3 a7.5 7.5 0 1 0 15 0 a7.5 7.5 0 1 0 -15 0zM1135.96 282.3 a7.5 7.5 0 1 0 15 0 a7.5 7.5 0 1 0 -15 0zM1200.92 319.8 a7.5 7.5 0 1 0 15 0 a7.5 7.5 0 1 0 -15 0zM1200.92 394.8 a7.5 7.5 0 1 0 15 0 a7.5 7.5 0 1 0 -15 0zM1135.96 432.3 a7.5 7.5 0 1 0 15 0 a7.5 7.5 0 1 0 -15 0zM1071.01 394.8 a7.5 7.5 0 1 0 15 0 a7.5 7.5 0 1 0 -15 0zM1071.01 319.8 a7.5 7.5 0 1 0 15 0 a7.5 7.5 0 1 0 -15 0zM1135.96 732.3 a7.5 7.5 0 1 0 15 0 a7.5 7.5 0 1 0 -15 0zM1200.92 769.8 a7.5 7.5 0 1 0 15 0 a7.5 7.5 0 1 0 -15 0zM1200.92 844.8 a7.5 7.5 0 1 0 15 0 a7.5 7.5 0 1 0 -15 0zM1135.96 882.3 a7.5 7.5 0 1 0 15 0 a7.5 7.5 0 1 0 -15 0zM1071.01 844.8 a7.5 7.5 0 1 0 15 0 a7.5 7.5 0 1 0 -15 0zM1071.01 769.8 a7.5 7.5 0 1 0 15 0 a7.5 7.5 0 1 0 -15 0zM1135.96 957.3 a7.5 7.5 0 1 0 15 0 a7.5 7.5 0 1 0 -15 0zM1006.06 882.3 a7.5 7.5 0 1 0 15 0 a7.5 7.5 0 1 0 -15 0zM1200.92 -55.2 a7.5 7.5 0 1 0 15 0 a7.5 7.5 0 1 0 -15 0zM1265.87 -17.7 a7.5 7.5 0 1 0 15 0 a7.5 7.5 0 1 0 -15 0zM1265.87 57.3 a7.5 7.5 0 1 0 15 0 a7.5 7.5 0 1 0 -15 0zM1200.92 94.8 a7.5 7.5 0 1 0 15 0 a7.5 7.5 0 1 0 -15 0zM1200.92 169.8 a7.5 7.5 0 1 0 15 0 a7.5 7.5 0 1 0 -15 0zM1265.87 207.3 a7.5 7.5 0 1 0 15 0 a7.5 7.5 0 1 0 -15 0zM1265.87 282.3 a7.5 7.5 0 1 0 15 0 a7.5 7.5 0 1 0 -15 0zM1135.96 207.3 a7.5 7.5 0 1 0 15 0 a7.5 7.5 0 1 0 -15 0zM1200.92 619.8 a7.5 7.5 0 1 0 15 0 a7.5 7.5 0 1 0 -15 0zM1265.87 657.3 a7.5 7.5 0 1 0 15 0 a7.5 7.5 0 1 0 -15 0zM1265.87 732.3 a7.5 7.5 0 1 0 15 0 a7.5 7.5 0 1 0 -15 0zM1135.96 657.3 a7.5 7.5 0 1 0 15 0 a7.5 7.5 0 1 0 -15 0zM1330.82 769.8 a7.5 7.5 0 1 0 15 0 a7.5 7.5 0 1 0 -15 0zM1330.82 844.8 a7.5 7.5 0 1 0 15 0 a7.5 7.5 0 1 0 -15 0zM1265.87 882.3 a7.5 7.5 0 1 0 15 0 a7.5 7.5 0 1 0 -15 0zM1200.92 1069.8 a7.5 7.5 0 1 0 15 0 a7.5 7.5 0 1 0 -15 0zM1265.87 1107.3 a7.5 7.5 0 1 0 15 0 a7.5 7.5 0 1 0 -15 0zM1265.87 1182.3 a7.5 7.5 0 1 0 15 0 a7.5 7.5 0 1 0 -15 0zM1200.92 1219.8 a7.5 7.5 0 1 0 15 0 a7.5 7.5 0 1 0 -15 0zM1135.96 1182.3 a7.5 7.5 0 1 0 15 0 a7.5 7.5 0 1 0 -15 0zM1135.96 1107.3 a7.5 7.5 0 1 0 15 0 a7.5 7.5 0 1 0 -15 0zM1330.83 169.8 a7.5 7.5 0 1 0 15 0 a7.5 7.5 0 1 0 -15 0zM1395.78 207.3 a7.5 7.5 0 1 0 15 0 a7.5 7.5 0 1 0 -15 0zM1395.78 282.3 a7.5 7.5 0 1 0 15 0 a7.5 7.5 0 1 0 -15 0zM1330.83 319.8 a7.5 7.5 0 1 0 15 0 a7.5 7.5 0 1 0 -15 0zM1395.78 507.3 a7.5 7.5 0 1 0 15 0 a7.5 7.5 0 1 0 -15 0zM1460.73 544.8 a7.5 7.5 0 1 0 15 0 a7.5 7.5 0 1 0 -15 0zM1460.73 619.8 a7.5 7.5 0 1 0 15 0 a7.5 7.5 0 1 0 -15 0zM1395.78 657.3 a7.5 7.5 0 1 0 15 0 a7.5 7.5 0 1 0 -15 0zM1330.83 619.8 a7.5 7.5 0 1 0 15 0 a7.5 7.5 0 1 0 -15 0zM1330.83 544.8 a7.5 7.5 0 1 0 15 0 a7.5 7.5 0 1 0 -15 0zM1395.78 732.3 a7.5 7.5 0 1 0 15 0 a7.5 7.5 0 1 0 -15 0zM1460.73 769.8 a7.5 7.5 0 1 0 15 0 a7.5 7.5 0 1 0 -15 0zM1460.73 844.8 a7.5 7.5 0 1 0 15 0 a7.5 7.5 0 1 0 -15 0zM1395.78 882.3 a7.5 7.5 0 1 0 15 0 a7.5 7.5 0 1 0 -15 0zM1330.83 844.8 a7.5 7.5 0 1 0 15 0 a7.5 7.5 0 1 0 -15 0zM1330.83 769.8 a7.5 7.5 0 1 0 15 0 a7.5 7.5 0 1 0 -15 0zM1395.78 957.3 a7.5 7.5 0 1 0 15 0 a7.5 7.5 0 1 0 -15 0zM1330.83 994.8 a7.5 7.5 0 1 0 15 0 a7.5 7.5 0 1 0 -15 0zM1265.87 957.3 a7.5 7.5 0 1 0 15 0 a7.5 7.5 0 1 0 -15 0zM1460.73 -55.2 a7.5 7.5 0 1 0 15 0 a7.5 7.5 0 1 0 -15 0zM1525.69 -17.7 a7.5 7.5 0 1 0 15 0 a7.5 7.5 0 1 0 -15 0zM1525.69 57.3 a7.5 7.5 0 1 0 15 0 a7.5 7.5 0 1 0 -15 0zM1460.73 94.8 a7.5 7.5 0 1 0 15 0 a7.5 7.5 0 1 0 -15 0zM1395.78 57.3 a7.5 7.5 0 1 0 15 0 a7.5 7.5 0 1 0 -15 0zM1395.78 -17.7 a7.5 7.5 0 1 0 15 0 a7.5 7.5 0 1 0 -15 0zM1525.69 282.3 a7.5 7.5 0 1 0 15 0 a7.5 7.5 0 1 0 -15 0zM1590.64 319.8 a7.5 7.5 0 1 0 15 0 a7.5 7.5 0 1 0 -15 0zM1590.64 394.8 a7.5 7.5 0 1 0 15 0 a7.5 7.5 0 1 0 -15 0zM1525.69 432.3 a7.5 7.5 0 1 0 15 0 a7.5 7.5 0 1 0 -15 0zM1460.73 394.8 a7.5 7.5 0 1 0 15 0 a7.5 7.5 0 1 0 -15 0zM1460.73 319.8 a7.5 7.5 0 1 0 15 0 a7.5 7.5 0 1 0 -15 0zM1525.69 507.3 a7.5 7.5 0 1 0 15 0 a7.5 7.5 0 1 0 -15 0zM1395.78 432.3 a7.5 7.5 0 1 0 15 0 a7.5 7.5 0 1 0 -15 0zM1590.64 544.8 a7.5 7.5 0 1 0 15 0 a7.5 7.5 0 1 0 -15 0zM1590.64 619.8 a7.5 7.5 0 1 0 15 0 a7.5 7.5 0 1 0 -15 0zM1525.69 657.3 a7.5 7.5 0 1 0 15 0 a7.5 7.5 0 1 0 -15 0zM1525.69 957.3 a7.5 7.5 0 1 0 15 0 a7.5 7.5 0 1 0 -15 0zM1590.64 994.8 a7.5 7.5 0 1 0 15 0 a7.5 7.5 0 1 0 -15 0zM1590.64 1069.8 a7.5 7.5 0 1 0 15 0 a7.5 7.5 0 1 0 -15 0zM1525.69 1107.3 a7.5 7.5 0 1 0 15 0 a7.5 7.5 0 1 0 -15 0zM1460.73 1069.8 a7.5 7.5 0 1 0 15 0 a7.5 7.5 0 1 0 -15 0zM1460.73 994.8 a7.5 7.5 0 1 0 15 0 a7.5 7.5 0 1 0 -15 0zM1525.69 1182.3 a7.5 7.5 0 1 0 15 0 a7.5 7.5 0 1 0 -15 0zM1460.73 1219.8 a7.5 7.5 0 1 0 15 0 a7.5 7.5 0 1 0 -15 0zM1395.78 1182.3 a7.5 7.5 0 1 0 15 0 a7.5 7.5 0 1 0 -15 0zM1395.78 1107.3 a7.5 7.5 0 1 0 15 0 a7.5 7.5 0 1 0 -15 0zM1590.64 -55.2 a7.5 7.5 0 1 0 15 0 a7.5 7.5 0 1 0 -15 0zM1655.59 -17.7 a7.5 7.5 0 1 0 15 0 a7.5 7.5 0 1 0 -15 0zM1655.59 57.3 a7.5 7.5 0 1 0 15 0 a7.5 7.5 0 1 0 -15 0zM1590.64 94.8 a7.5 7.5 0 1 0 15 0 a7.5 7.5 0 1 0 -15 0zM1590.64 169.8 a7.5 7.5 0 1 0 15 0 a7.5 7.5 0 1 0 -15 0zM1655.59 207.3 a7.5 7.5 0 1 0 15 0 a7.5 7.5 0 1 0 -15 0zM1655.59 282.3 a7.5 7.5 0 1 0 15 0 a7.5 7.5 0 1 0 -15 0zM1525.69 207.3 a7.5 7.5 0 1 0 15 0 a7.5 7.5 0 1 0 -15 0zM1720.55 319.8 a7.5 7.5 0 1 0 15 0 a7.5 7.5 0 1 0 -15 0zM1720.55 394.8 a7.5 7.5 0 1 0 15 0 a7.5 7.5 0 1 0 -15 0zM1655.59 432.3 a7.5 7.5 0 1 0 15 0 a7.5 7.5 0 1 0 -15 0zM1655.59 507.3 a7.5 7.5 0 1 0 15 0 a7.5 7.5 0 1 0 -15 0zM1590.64 844.8 a7.5 7.5 0 1 0 15 0 a7.5 7.5 0 1 0 -15 0zM1655.59 882.3 a7.5 7.5 0 1 0 15 0 a7.5 7.5 0 1 0 -15 0zM1655.59 957.3 a7.5 7.5 0 1 0 15 0 a7.5 7.5 0 1 0 -15 0zM1525.69 882.3 a7.5 7.5 0 1 0 15 0 a7.5 7.5 0 1 0 -15 0zM1655.59 1107.3 a7.5 7.5 0 1 0 15 0 a7.5 7.5 0 1 0 -15 0zM1655.59 1182.3 a7.5 7.5 0 1 0 15 0 a7.5 7.5 0 1 0 -15 0zM1590.64 1219.8 a7.5 7.5 0 1 0 15 0 a7.5 7.5 0 1 0 -15 0zM1785.5 282.3 a7.5 7.5 0 1 0 15 0 a7.5 7.5 0 1 0 -15 0zM1850.45 319.8 a7.5 7.5 0 1 0 15 0 a7.5 7.5 0 1 0 -15 0zM1850.45 394.8 a7.5 7.5 0 1 0 15 0 a7.5 7.5 0 1 0 -15 0zM1785.5 432.3 a7.5 7.5 0 1 0 15 0 a7.5 7.5 0 1 0 -15 0zM1785.5 507.3 a7.5 7.5 0 1 0 15 0 a7.5 7.5 0 1 0 -15 0zM1720.55 544.8 a7.5 7.5 0 1 0 15 0 a7.5 7.5 0 1 0 -15 0zM1720.55 619.8 a7.5 7.5 0 1 0 15 0 a7.5 7.5 0 1 0 -15 0zM1785.5 657.3 a7.5 7.5 0 1 0 15 0 a7.5 7.5 0 1 0 -15 0zM1785.5 732.3 a7.5 7.5 0 1 0 15 0 a7.5 7.5 0 1 0 -15 0zM1720.55 769.8 a7.5 7.5 0 1 0 15 0 a7.5 7.5 0 1 0 -15 0zM1655.59 732.3 a7.5 7.5 0 1 0 15 0 a7.5 7.5 0 1 0 -15 0zM1655.59 657.3 a7.5 7.5 0 1 0 15 0 a7.5 7.5 0 1 0 -15 0zM1785.5 957.3 a7.5 7.5 0 1 0 15 0 a7.5 7.5 0 1 0 -15 0zM1850.45 994.8 a7.5 7.5 0 1 0 15 0 a7.5 7.5 0 1 0 -15 0zM1850.45 1069.8 a7.5 7.5 0 1 0 15 0 a7.5 7.5 0 1 0 -15 0zM1785.5 1107.3 a7.5 7.5 0 1 0 15 0 a7.5 7.5 0 1 0 -15 0zM1720.55 1069.8 a7.5 7.5 0 1 0 15 0 a7.5 7.5 0 1 0 -15 0zM1720.55 994.8 a7.5 7.5 0 1 0 15 0 a7.5 7.5 0 1 0 -15 0zM1785.5 1182.3 a7.5 7.5 0 1 0 15 0 a7.5 7.5 0 1 0 -15 0zM1720.55 1219.8 a7.5 7.5 0 1 0 15 0 a7.5 7.5 0 1 0 -15 0zM1915.41 507.3 a7.5 7.5 0 1 0 15 0 a7.5 7.5 0 1 0 -15 0zM1980.36 544.8 a7.5 7.5 0 1 0 15 0 a7.5 7.5 0 1 0 -15 0zM1980.36 619.8 a7.5 7.5 0 1 0 15 0 a7.5 7.5 0 1 0 -15 0zM1915.41 657.3 a7.5 7.5 0 1 0 15 0 a7.5 7.5 0 1 0 -15 0zM1850.45 619.8 a7.5 7.5 0 1 0 15 0 a7.5 7.5 0 1 0 -15 0zM1850.45 544.8 a7.5 7.5 0 1 0 15 0 a7.5 7.5 0 1 0 -15 0zM1915.41 732.3 a7.5 7.5 0 1 0 15 0 a7.5 7.5 0 1 0 -15 0zM1850.45 769.8 a7.5 7.5 0 1 0 15 0 a7.5 7.5 0 1 0 -15 0z" fill="#03305d"></path><path d="M27.37 -49.76L70.67 -24.76L70.67 25.24L27.37 50.24L-15.93 25.24L-15.93 -24.76zM70.67 25.24L113.98 50.24L113.98 100.24L70.67 125.24L27.37 100.24L27.37 50.24zM70.67 325.24L113.98 350.24L113.98 400.24L70.67 425.24L27.37 400.24L27.37 350.24zM70.67 475.24L113.98 500.24L113.98 550.24L70.67 575.24L27.37 550.24L27.37 500.24zM70.67 925.24L113.98 950.24L113.98 1000.24L70.67 1025.24L27.37 1000.24L27.37 950.24zM27.37 1000.24L70.67 1025.24L70.67 1075.24L27.37 1100.24L-15.93 1075.24L-15.93 1025.24zM113.98 250.24L157.28 275.24L157.28 325.24L113.98 350.24L70.67 325.24L70.67 275.24zM157.28 475.24L200.58 500.24L200.58 550.24L157.28 575.24L113.98 550.24L113.98 500.24zM200.58 -49.76L243.88 -24.76L243.88 25.24L200.58 50.24L157.28 25.24L157.28 -24.76zM200.58 100.24L243.88 125.24L243.88 175.24L200.58 200.24L157.28 175.24L157.28 125.24zM243.88 625.24L287.19 650.24L287.19 700.24L243.88 725.24L200.58 700.24L200.58 650.24zM243.88 775.24L287.19 800.24L287.19 850.24L243.88 875.24L200.58 850.24L200.58 800.24zM243.88 925.24L287.19 950.24L287.19 1000.24L243.88 1025.24L200.58 1000.24L200.58 950.24zM330.49 25.24L373.79 50.24L373.79 100.24L330.49 125.24L287.19 100.24L287.19 50.24zM287.19 550.24L330.49 575.24L330.49 625.24L287.19 650.24L243.88 625.24L243.88 575.24zM287.19 850.24L330.49 875.24L330.49 925.24L287.19 950.24L243.88 925.24L243.88 875.24zM373.79 -49.76L417.09 -24.76L417.09 25.24L373.79 50.24L330.49 25.24L330.49 -24.76zM373.79 100.24L417.09 125.24L417.09 175.24L373.79 200.24L330.49 175.24L330.49 125.24zM373.79 400.24L417.09 425.24L417.09 475.24L373.79 500.24L330.49 475.24L330.49 425.24zM417.09 625.24L460.4 650.24L460.4 700.24L417.09 725.24L373.79 700.24L373.79 650.24zM373.79 700.24L417.09 725.24L417.09 775.24L373.79 800.24L330.49 775.24L330.49 725.24zM460.4 -49.76L503.7 -24.76L503.7 25.24L460.4 50.24L417.09 25.24L417.09 -24.76zM503.7 325.24L547 350.24L547 400.24L503.7 425.24L460.4 400.24L460.4 350.24zM503.7 475.24L547 500.24L547 550.24L503.7 575.24L460.4 550.24L460.4 500.24zM503.7 775.24L547 800.24L547 850.24L503.7 875.24L460.4 850.24L460.4 800.24zM547 100.24L590.3 125.24L590.3 175.24L547 200.24L503.7 175.24L503.7 125.24zM590.3 175.24L633.61 200.24L633.61 250.24L590.3 275.24L547 250.24L547 200.24zM633.61 -49.76L676.91 -24.76L676.91 25.24L633.61 50.24L590.3 25.24L590.3 -24.76zM676.91 25.24L720.21 50.24L720.21 100.24L676.91 125.24L633.61 100.24L633.61 50.24zM633.61 100.24L676.91 125.24L676.91 175.24L633.61 200.24L590.3 175.24L590.3 125.24zM676.91 625.24L720.21 650.24L720.21 700.24L676.91 725.24L633.61 700.24L633.61 650.24zM763.51 25.24L806.82 50.24L806.82 100.24L763.51 125.24L720.21 100.24L720.21 50.24zM763.51 175.24L806.82 200.24L806.82 250.24L763.51 275.24L720.21 250.24L720.21 200.24zM763.51 325.24L806.82 350.24L806.82 400.24L763.51 425.24L720.21 400.24L720.21 350.24zM720.21 1000.24L763.51 1025.24L763.51 1075.24L720.21 1100.24L676.91 1075.24L676.91 1025.24zM850.12 625.24L893.42 650.24L893.42 700.24L850.12 725.24L806.82 700.24L806.82 650.24zM893.42 250.24L936.72 275.24L936.72 325.24L893.42 350.24L850.12 325.24L850.12 275.24zM893.42 850.24L936.72 875.24L936.72 925.24L893.42 950.24L850.12 925.24L850.12 875.24zM936.72 925.24L980.03 950.24L980.03 1000.24L936.72 1025.24L893.42 1000.24L893.42 950.24zM980.03 -49.76L1023.33 -24.76L1023.33 25.24L980.03 50.24L936.72 25.24L936.72 -24.76zM980.03 550.24L1023.33 575.24L1023.33 625.24L980.03 650.24L936.72 625.24L936.72 575.24zM980.03 700.24L1023.33 725.24L1023.33 775.24L980.03 800.24L936.72 775.24L936.72 725.24zM1066.63 -49.76L1109.93 -24.76L1109.93 25.24L1066.63 50.24L1023.33 25.24L1023.33 -24.76zM1109.93 625.24L1153.23 650.24L1153.23 700.24L1109.93 725.24L1066.63 700.24L1066.63 650.24zM1109.93 925.24L1153.23 950.24L1153.23 1000.24L1109.93 1025.24L1066.63 1000.24L1066.63 950.24zM1066.63 1000.24L1109.93 1025.24L1109.93 1075.24L1066.63 1100.24L1023.33 1075.24L1023.33 1025.24zM1153.23 -49.76L1196.54 -24.76L1196.54 25.24L1153.23 50.24L1109.93 25.24L1109.93 -24.76zM1153.23 400.24L1196.54 425.24L1196.54 475.24L1153.23 500.24L1109.93 475.24L1109.93 425.24zM1153.23 1000.24L1196.54 1025.24L1196.54 1075.24L1153.23 1100.24L1109.93 1075.24L1109.93 1025.24zM1283.14 475.24L1326.44 500.24L1326.44 550.24L1283.14 575.24L1239.84 550.24L1239.84 500.24zM1283.14 625.24L1326.44 650.24L1326.44 700.24L1283.14 725.24L1239.84 700.24L1239.84 650.24zM1239.84 1000.24L1283.14 1025.24L1283.14 1075.24L1239.84 1100.24L1196.54 1075.24L1196.54 1025.24zM1369.75 325.24L1413.05 350.24L1413.05 400.24L1369.75 425.24L1326.44 400.24L1326.44 350.24zM1369.75 625.24L1413.05 650.24L1413.05 700.24L1369.75 725.24L1326.44 700.24L1326.44 650.24zM1326.44 700.24L1369.75 725.24L1369.75 775.24L1326.44 800.24L1283.14 775.24L1283.14 725.24zM1326.44 1000.24L1369.75 1025.24L1369.75 1075.24L1326.44 1100.24L1283.14 1075.24L1283.14 1025.24zM1413.05 400.24L1456.35 425.24L1456.35 475.24L1413.05 500.24L1369.75 475.24L1369.75 425.24zM1413.05 550.24L1456.35 575.24L1456.35 625.24L1413.05 650.24L1369.75 625.24L1369.75 575.24zM1413.05 850.24L1456.35 875.24L1456.35 925.24L1413.05 950.24L1369.75 925.24L1369.75 875.24zM1413.05 1000.24L1456.35 1025.24L1456.35 1075.24L1413.05 1100.24L1369.75 1075.24L1369.75 1025.24zM1499.65 400.24L1542.96 425.24L1542.96 475.24L1499.65 500.24L1456.35 475.24L1456.35 425.24zM1499.65 700.24L1542.96 725.24L1542.96 775.24L1499.65 800.24L1456.35 775.24L1456.35 725.24zM1499.65 1000.24L1542.96 1025.24L1542.96 1075.24L1499.65 1100.24L1456.35 1075.24L1456.35 1025.24zM1629.56 25.24L1672.87 50.24L1672.87 100.24L1629.56 125.24L1586.26 100.24L1586.26 50.24zM1586.26 250.24L1629.56 275.24L1629.56 325.24L1586.26 350.24L1542.96 325.24L1542.96 275.24zM1629.56 325.24L1672.87 350.24L1672.87 400.24L1629.56 425.24L1586.26 400.24L1586.26 350.24zM1586.26 700.24L1629.56 725.24L1629.56 775.24L1586.26 800.24L1542.96 775.24L1542.96 725.24zM1586.26 1000.24L1629.56 1025.24L1629.56 1075.24L1586.26 1100.24L1542.96 1075.24L1542.96 1025.24zM1672.87 100.24L1716.17 125.24L1716.17 175.24L1672.87 200.24L1629.56 175.24L1629.56 125.24zM1716.17 325.24L1759.47 350.24L1759.47 400.24L1716.17 425.24L1672.87 400.24L1672.87 350.24zM1672.87 400.24L1716.17 425.24L1716.17 475.24L1672.87 500.24L1629.56 475.24L1629.56 425.24zM1759.47 250.24L1802.77 275.24L1802.77 325.24L1759.47 350.24L1716.17 325.24L1716.17 275.24zM1759.47 400.24L1802.77 425.24L1802.77 475.24L1759.47 500.24L1716.17 475.24L1716.17 425.24zM1802.77 475.24L1846.08 500.24L1846.08 550.24L1802.77 575.24L1759.47 550.24L1759.47 500.24zM1759.47 850.24L1802.77 875.24L1802.77 925.24L1759.47 950.24L1716.17 925.24L1716.17 875.24zM1889.38 25.24L1932.68 50.24L1932.68 100.24L1889.38 125.24L1846.08 100.24L1846.08 50.24zM1846.08 100.24L1889.38 125.24L1889.38 175.24L1846.08 200.24L1802.77 175.24L1802.77 125.24zM1889.38 625.24L1932.68 650.24L1932.68 700.24L1889.38 725.24L1846.08 700.24L1846.08 650.24zM1889.38 775.24L1932.68 800.24L1932.68 850.24L1889.38 875.24L1846.08 850.24L1846.08 800.24zM1846.08 1000.24L1889.38 1025.24L1889.38 1075.24L1846.08 1100.24L1802.77 1075.24L1802.77 1025.24zM1975.98 25.24L2019.29 50.24L2019.29 100.24L1975.98 125.24L1932.68 100.24L1932.68 50.24zM1932.68 100.24L1975.98 125.24L1975.98 175.24L1932.68 200.24L1889.38 175.24L1889.38 125.24zM1932.68 550.24L1975.98 575.24L1975.98 625.24L1932.68 650.24L1889.38 625.24L1889.38 575.24zM1975.98 775.24L2019.29 800.24L2019.29 850.24L1975.98 875.24L1932.68 850.24L1932.68 800.24z" stroke="rgba(6, 80, 156, 0.93)" stroke-width="2"></path></g><defs><mask id="SvgjsMask1092"><rect width="1920" height="1080" fill="#ffffff"></rect></mask></defs></svg>