<svg xmlns="http://www.w3.org/2000/svg" version="1.1" xmlns:xlink="http://www.w3.org/1999/xlink" xmlns:svgjs="http://svgjs.dev/svgjs" width="1920" height="1080" preserveAspectRatio="none" viewBox="0 0 1920 1080"><g mask="url(&quot;#SvgjsMask1137&quot;)" fill="none"><rect width="1920" height="1080" x="0" y="0" fill="url(&quot;#SvgjsLinearGradient1138&quot;)"></rect><path d="M0 0L158.79 0L0 326.99z" fill="rgba(255, 255, 255, .1)"></path><path d="M0 326.99L158.79 0L421.11 0L0 424.15z" fill="rgba(255, 255, 255, .075)"></path><path d="M0 424.15L421.11 0L491.08000000000004 0L0 774.06z" fill="rgba(255, 255, 255, .05)"></path><path d="M0 774.06L491.08000000000004 0L1164.99 0L0 924.41z" fill="rgba(255, 255, 255, .025)"></path><path d="M1920 1080L1192.8899999999999 1080L1920 690.51z" fill="rgba(0, 0, 0, .1)"></path><path d="M1920 690.51L1192.8899999999999 1080L907.4899999999999 1080L1920 477.75z" fill="rgba(0, 0, 0, .075)"></path><path d="M1920 477.75L907.49 1080L518.53 1080L1920 360.7z" fill="rgba(0, 0, 0, .05)"></path><path d="M1920 360.70000000000005L518.53 1080L256.76 1080L1920 279.98z" fill="rgba(0, 0, 0, .025)"></path></g><defs><mask id="SvgjsMask1137"><rect width="1920" height="1080" fill="#ffffff"></rect></mask><linearGradient x1="89.06%" y1="119.44%" x2="10.94%" y2="-19.44%" gradientUnits="userSpaceOnUse" id="SvgjsLinearGradient1138"><stop stop-color="rgba(179, 220, 237, 1)" offset="0"></stop><stop stop-color="rgba(32, 124, 229, 1)" offset="1"></stop></linearGradient></defs></svg>